<?xml version="1.0" encoding="UTF-8"?>
<svg id="Layer_2" data-name="Layer 2" xmlns="http://www.w3.org/2000/svg" viewBox="0 0 289.57 62.37">
  <defs>
    <style>
      .cls-1 {
        fill: #1b2033;
      }
    </style>
  </defs>
  <g id="Layer_2-2" data-name="Layer 2">
    <g>
      <path class="cls-1" d="M105.27,9.17h79.27c2.64,0,4.4-1.76,4.4-4.4s-1.76-4.4-4.4-4.4h-79.27c-2.64,0-4.4,1.76-4.4,4.4s1.76,4.4,4.4,4.4M184.55,17.97h-79.27c-2.64,0-4.4,1.76-4.4,4.4s1.76,4.4,4.4,4.4h79.27c2.64,0,4.4-1.76,4.4-4.4s-1.76-4.4-4.4-4.4M184.55,35.59h-79.27c-2.64,0-4.4,1.76-4.4,4.4s1.76,4.4,4.4,4.4h79.27c2.64,0,4.4-1.76,4.4-4.4s-1.76-4.4-4.4-4.4M184.55,53.21h-79.27c-2.64,0-4.4,1.76-4.4,4.4s1.76,4.4,4.4,4.4h79.27c2.64,0,4.4-1.76,4.4-4.4s-1.76-4.4-4.4-4.4"/>
      <path class="cls-1" d="M205.16,8.97h79.97c2.67,0,4.44-1.78,4.44-4.44s-1.78-4.44-4.44-4.44h-79.97c-2.67,0-4.44,1.78-4.44,4.44s1.78,4.44,4.44,4.44M205.16,26.74h62.2c2.67,0,4.44-1.78,4.44-4.44s-1.78-4.44-4.44-4.44h-62.2c-2.67,0-4.44,1.78-4.44,4.44s1.78,4.44,4.44,4.44M285.13,35.63h-79.97c-2.67,0-4.44,1.78-4.44,4.44s1.78,4.44,4.44,4.44h79.97c2.67,0,4.44-1.78,4.44-4.44s-1.78-4.44-4.44-4.44M267.36,53.4h-62.2c-2.67,0-4.44,1.78-4.44,4.44s1.78,4.44,4.44,4.44h62.2c2.67,0,4.44-1.78,4.44-4.44s-1.78-4.44-4.44-4.44"/>
      <path class="cls-1" d="M4.46,8.91h80.2c2.67,0,4.46-1.78,4.46-4.46s-1.78-4.46-4.46-4.46H4.46C1.78,0,0,1.78,0,4.46s1.78,4.46,4.46,4.46M84.65,17.82H22.28c-2.67,0-4.46,1.78-4.46,4.46s1.78,4.46,4.46,4.46h62.37c2.67,0,4.46-1.78,4.46-4.46s-1.78-4.46-4.46-4.46M84.65,35.64H4.46c-2.67,0-4.46,1.78-4.46,4.46s1.78,4.46,4.46,4.46h80.2c2.67,0,4.46-1.78,4.46-4.46s-1.78-4.46-4.46-4.46M84.65,53.46H22.28c-2.67,0-4.46,1.78-4.46,4.46s1.78,4.46,4.46,4.46h62.37c2.67,0,4.46-1.78,4.46-4.46s-1.78-4.46-4.46-4.46"/>
    </g>
  </g>
</svg>