<?xml version="1.0" encoding="UTF-8"?>
<svg id="Layer_1" xmlns="http://www.w3.org/2000/svg" version="1.1" viewBox="0 0 223.2 223.2">
  <!-- Generator: Adobe Illustrator 30.6.0, SVG Export Plug-In . SVG Version: 2.1.4 Build 109)  -->
  <defs>
    <style>
      .st0 {
        fill: #231f20;
      }

      .st1 {
        fill: none;
        stroke: #231f20;
        stroke-miterlimit: 10;
        stroke-width: 6px;
      }
    </style>
  </defs>
  <rect class="st1" x="3" y="3" width="217.2" height="217.2"/>
  <g>
    <path class="st0" d="M33.1,55.2c7-1.2,17-2.1,30.9-2.1s24.2,2.7,30.9,8.1c6.4,5.1,10.8,13.5,10.8,23.4s-3.3,18.3-9.3,24c-7.8,7.4-19.3,10.6-32.8,10.6s-5.7-.1-7.8-.4v36.2h-22.6s0-99.8,0-99.8ZM55.7,101.1c2,.4,4.3.6,7.7.6,12.1,0,19.6-6.1,19.6-16.5s-6.4-14.9-17.8-14.9-7.8.4-9.5.9v29.9Z"/>
    <path class="st0" d="M118.8,154.9c.3-4.8.6-13.6.6-21.9V48.4h22.8v41.8h.3c4.4-6.3,12-10.4,22.2-10.4,17.6,0,30.4,14.6,30.3,37.1,0,26.4-16.8,39.6-33.6,39.6s-16.8-3.1-22.1-11.9h-.3l-.9,10.2h-19.4ZM142.2,123.7c0,1.5.1,2.9.4,4.1,1.5,6.1,6.8,10.8,13.4,10.8,9.8,0,15.8-7.5,15.8-20.7s-5.1-20.4-15.8-20.4-11.9,4.6-13.4,11.2c-.3,1.4-.4,2.7-.4,4.2v10.8h0Z"/>
  </g>
  <g>
    <path class="st0" d="M14.2,25c0-1.9,1.1-3.3,2.9-4.1h0c-1.6-.9-2.4-2.2-2.4-3.6,0-2.8,2.5-4.6,5.7-4.6s5.4,2.2,5.4,4.2-.8,2.8-2.4,3.6h0c1.6.7,3,2,3,4.1s-2.5,4.9-6.2,4.9-6-2.3-6-4.5h0ZM22.6,24.9c0-1.4-1-2.3-2.5-2.7-1.2.3-2,1.2-2,2.4,0,1.2.9,2.3,2.3,2.3s2.2-.9,2.2-2ZM18.3,17.2c0,1.1,1,1.8,2.3,2.2.9-.2,1.6-1.1,1.6-2.1s-.6-2-2-2-2,.8-2,1.9h0Z"/>
    <path class="st0" d="M28.4,29.2v-2.3l2.1-1.9c3.5-3.2,5.3-5,5.3-6.9,0-1.3-.8-2.4-2.7-2.4s-2.6.7-3.5,1.3l-1.1-2.7c1.2-.9,3.1-1.7,5.3-1.7,3.7,0,5.7,2.2,5.7,5.1s-2,4.9-4.3,7l-1.5,1.2h0c0,0,6.1,0,6.1,0v3.1h-11.5Z"/>
  </g>
  <g>
    <path class="st0" d="M171.2,29.2v-2.3l2.1-1.9c3.6-3.2,5.3-5,5.3-6.9,0-1.3-.8-2.4-2.7-2.4s-2.6.7-3.5,1.3l-1.1-2.7c1.2-.9,3.1-1.7,5.3-1.7,3.7,0,5.7,2.2,5.7,5.1s-2,4.9-4.3,7l-1.5,1.2h0c0,0,6.1,0,6.1,0v3.1h-11.5Z"/>
    <path class="st0" d="M197,21c0,5-2,8.5-6.2,8.5s-6.1-3.8-6.1-8.4c0-4.7,2-8.4,6.2-8.4s6.1,3.9,6.1,8.3h0ZM188.6,21.1c0,3.7.9,5.5,2.4,5.5s2.3-1.8,2.3-5.6-.8-5.5-2.3-5.5-2.4,1.8-2.3,5.6Z"/>
    <path class="st0" d="M210.6,13v2.4l-6.7,13.8h-4l6.7-13.1h0c0,0-7.4,0-7.4,0v-3.1h11.5Z"/>
  </g>
  <g>
    <path class="st0" d="M86.3,175.9h3.8v13.6h6.7v3.2h-10.5v-16.9h0Z"/>
    <path class="st0" d="M101.7,187.9c.1,1.6,1.7,2.3,3.4,2.3s2.3-.2,3.4-.5l.5,2.6c-1.2.5-2.8.8-4.4.8-4.2,0-6.5-2.4-6.5-6.2s1.9-6.5,6.2-6.5,5.4,3.1,5.4,6.1,0,1.2-.1,1.5h-7.9ZM106.1,185.3c0-.9-.4-2.5-2.2-2.5s-2.2,1.4-2.3,2.5h4.5Z"/>
    <path class="st0" d="M118.9,192.8l-.2-1.2h0c-.8,1-2.1,1.5-3.5,1.5-2.5,0-3.9-1.8-3.9-3.8,0-3.2,2.8-4.7,7.2-4.7v-.2c0-.6-.3-1.6-2.2-1.6s-2.6.4-3.4.9l-.7-2.4c.8-.5,2.5-1.1,4.8-1.1,4.1,0,5.4,2.4,5.4,5.3v4.2c0,1.2,0,2.3.2,3h-3.4,0ZM118.4,187c-2,0-3.6.4-3.6,1.9s.7,1.4,1.5,1.4,1.7-.6,2-1.4c0-.2,0-.4,0-.6v-1.3Z"/>
    <path class="st0" d="M137,175.1v14.1c0,1.4,0,2.8.1,3.7h-3.4l-.2-1.8h0c-.8,1.4-2.2,2.1-3.8,2.1-2.9,0-5.2-2.5-5.2-6.3,0-4.1,2.6-6.5,5.5-6.5s2.7.5,3.2,1.4h0v-6.6h3.8,0ZM133.2,185.8c0-.2,0-.5,0-.7-.2-1-1.1-1.9-2.2-1.9-1.7,0-2.6,1.6-2.6,3.5s1,3.4,2.6,3.4,2-.8,2.2-1.8c0-.3.1-.6.1-.9v-1.6h0Z"/>
    <path class="st0" d="M53.8,199.5c-.7,1.1-1.2,2.7-1.2,4.9s.5,3.7,1.2,4.8h-1.3c-.7-.9-1.4-2.5-1.4-4.8,0-2.3.7-3.9,1.4-4.9h1.3Z"/>
    <path class="st0" d="M55,199.8c.6-.1,1.4-.2,2.5-.2s1.9.2,2.5.6c.5.4.9,1.1.9,1.9s-.3,1.5-.7,1.9c-.6.6-1.5.9-2.6.9s-.5,0-.6,0v2.9h-1.8v-8h0ZM56.8,203.5c.2,0,.3,0,.6,0,1,0,1.6-.5,1.6-1.3s-.5-1.2-1.4-1.2-.6,0-.8,0v2.4h0Z"/>
    <path class="st0" d="M67.4,204.8c0,2.1-1.5,3.1-3.1,3.1s-3-1.1-3-3,1.2-3.1,3.1-3.1,3,1.2,3,3h0ZM63.2,204.9c0,1,.4,1.8,1.2,1.8s1.2-.7,1.2-1.8-.3-1.8-1.2-1.8-1.2.9-1.2,1.8Z"/>
    <path class="st0" d="M68.6,206.2c.3.2,1,.4,1.6.4s.8-.2.8-.5-.2-.4-.9-.7c-1.2-.4-1.7-1.1-1.7-1.8,0-1.1.9-1.9,2.4-1.9s1.3.2,1.7.3l-.3,1.3c-.3-.1-.8-.3-1.3-.3s-.7.2-.7.5.2.4.9.7c1.1.4,1.6,1,1.6,1.8,0,1.1-.9,1.9-2.5,1.9s-1.4-.2-1.9-.4l.3-1.3h0Z"/>
    <path class="st0" d="M75.8,200.2v1.7h1.3v1.3h-1.3v2.1c0,.7.2,1,.7,1s.4,0,.5,0v1.4c-.2.1-.7.2-1.2.2s-1.1-.2-1.4-.5c-.3-.4-.5-.9-.5-1.7v-2.4h-.8v-1.3h.8v-1.3l1.8-.4h0Z"/>
    <path class="st0" d="M80.9,204v1.2h-3.1v-1.2h3.1Z"/>
    <path class="st0" d="M83,201.2h-2.2v-1.5h6.2v1.5h-2.2v6.5h-1.8v-6.5Z"/>
    <path class="st0" d="M87.3,203.9c0-.9,0-1.4,0-1.9h1.6v1.1h.1c.3-.9,1-1.2,1.6-1.2s.2,0,.4,0v1.7c-.1,0-.3,0-.5,0-.7,0-1.1.4-1.2.9,0,.1,0,.3,0,.4v3h-1.8v-3.9h0Z"/>
    <path class="st0" d="M95.1,207.8v-.6h-.2c-.4.5-1,.7-1.7.7-1.2,0-1.9-.9-1.9-1.8,0-1.5,1.4-2.2,3.4-2.2h0c0-.4-.2-.8-1.1-.8s-1.2.2-1.6.4l-.3-1.2c.4-.2,1.2-.5,2.3-.5,2,0,2.6,1.1,2.6,2.5v2c0,.6,0,1.1,0,1.4h-1.6,0ZM94.8,205c-1,0-1.7.2-1.7.9s.3.7.7.7.8-.3.9-.7c0-.1,0-.2,0-.3v-.6h0Z"/>
    <path class="st0" d="M98.1,203.8c0-.7,0-1.4,0-1.9h1.6v.8h.1c.2-.4.8-.9,1.8-.9s2.1.8,2.1,2.5v3.5h-1.8v-3.2c0-.8-.3-1.3-.9-1.3s-.8.4-.9.7c0,.1,0,.3,0,.5v3.4h-1.8v-4h0Z"/>
    <path class="st0" d="M105.1,206.2c.3.2,1,.4,1.6.4s.8-.2.8-.5-.2-.4-.9-.7c-1.2-.4-1.7-1.1-1.7-1.8,0-1.1.9-1.9,2.4-1.9s1.3.2,1.7.3l-.3,1.3c-.3-.1-.8-.3-1.3-.3s-.7.2-.7.5.2.4.9.7c1.1.4,1.6,1,1.6,1.8,0,1.1-.9,1.9-2.5,1.9s-1.4-.2-1.9-.4l.3-1.3h0Z"/>
    <path class="st0" d="M112.2,200.3c0,.5-.4.9-1,.9s-1-.4-.9-.9c0-.5.4-.9,1-.9s1,.4,1,.9ZM110.3,207.8v-5.9h1.8v5.9h-1.8Z"/>
    <path class="st0" d="M115.6,200.2v1.7h1.3v1.3h-1.3v2.1c0,.7.2,1,.7,1s.4,0,.5,0v1.4c-.2.1-.7.2-1.2.2s-1.1-.2-1.4-.5c-.3-.4-.5-.9-.5-1.7v-2.4h-.8v-1.3h.8v-1.3l1.8-.4h0Z"/>
    <path class="st0" d="M119.9,200.3c0,.5-.4.9-1,.9s-1-.4-.9-.9c0-.5.4-.9,1-.9s1,.4,1,.9ZM118,207.8v-5.9h1.8v5.9h-1.8Z"/>
    <path class="st0" d="M127.1,204.8c0,2.1-1.5,3.1-3.1,3.1s-3-1.1-3-3,1.2-3.1,3.1-3.1,3,1.2,3,3h0ZM122.8,204.9c0,1,.4,1.8,1.2,1.8s1.2-.7,1.2-1.8-.3-1.8-1.2-1.8-1.2.9-1.2,1.8Z"/>
    <path class="st0" d="M128.2,203.8c0-.7,0-1.4,0-1.9h1.6v.8h.1c.2-.4.8-.9,1.8-.9s2.1.8,2.1,2.5v3.5h-1.8v-3.2c0-.8-.3-1.3-.9-1.3s-.8.4-.9.7c0,.1,0,.3,0,.5v3.4h-1.8v-4h0Z"/>
    <path class="st0" d="M138,204v1.2h-3.1v-1.2h3.1Z"/>
    <path class="st0" d="M146,204.7c0-1,0-2.1,0-3.3h0c-.2,1-.6,2.2-.9,3.1l-1,3.1h-1.4l-.9-3.1c-.3-1-.5-2.1-.7-3.1h0c0,1.1,0,2.3-.1,3.4v3.1h-1.8l.5-8.1h2.4l.8,2.7c.2.9.5,1.9.7,2.9h0c.2-.9.5-2,.8-2.9l.9-2.7h2.4l.4,8.1h-1.8v-3.1c-.1,0-.1,0-.1,0Z"/>
    <path class="st0" d="M150.7,205.5c0,.8.8,1.1,1.7,1.1s1.1,0,1.6-.2l.2,1.2c-.6.2-1.3.4-2.1.4-2,0-3.1-1.1-3.1-3s.9-3.1,3-3.1,2.6,1.5,2.6,2.9,0,.6,0,.7h-3.8ZM152.9,204.2c0-.4-.2-1.2-1-1.2s-1.1.7-1.1,1.2h2.2Z"/>
    <path class="st0" d="M157.7,200.2v1.7h1.3v1.3h-1.3v2.1c0,.7.2,1,.7,1s.4,0,.5,0v1.4c-.2.1-.7.2-1.2.2s-1.1-.2-1.4-.5c-.3-.4-.5-.9-.5-1.7v-2.4h-.8v-1.3h.8v-1.3l1.8-.4h0Z"/>
    <path class="st0" d="M163.4,207.8v-.6h-.1c-.4.5-1,.7-1.7.7-1.2,0-1.9-.9-1.9-1.8,0-1.5,1.4-2.2,3.4-2.2h0c0-.4-.2-.8-1.1-.8s-1.2.2-1.6.4l-.3-1.2c.4-.2,1.2-.5,2.3-.5,2,0,2.6,1.1,2.6,2.5v2c0,.6,0,1.1,0,1.4h-1.6,0ZM163.1,205c-1,0-1.7.2-1.7.9s.3.7.7.7.8-.3.9-.7c0-.1,0-.2,0-.3v-.6h0Z"/>
    <path class="st0" d="M166.4,199.3h1.8v8.5h-1.8v-8.5Z"/>
    <path class="st0" d="M169.4,209.2c.7-1.1,1.2-2.7,1.2-4.8s-.5-3.7-1.2-4.8h1.3c.6.9,1.4,2.5,1.4,4.8,0,2.3-.7,3.9-1.4,4.8h-1.3Z"/>
  </g>
</svg>