<?xml version="1.0" encoding="UTF-8"?>
<svg id="Layer_2" data-name="Layer 2" xmlns="http://www.w3.org/2000/svg" viewBox="0 0 198.93 198.93">
  <defs>
    <style>
      .cls-1 {
        fill: #231f20;
      }

      .cls-2 {
        fill: none;
        stroke: #000;
        stroke-linecap: round;
        stroke-linejoin: round;
        stroke-width: 7px;
      }
    </style>
  </defs>
  <g id="Layer_3" data-name="Layer 3">
    <g>
      <path class="cls-1" d="M149.08,38.74l1.34,28.48h-3.4c-.66-5.02-1.55-8.6-2.69-10.75-1.85-3.46-4.31-6.01-7.39-7.66-3.08-1.64-7.12-2.46-12.14-2.46h-17.11v92.79c0,7.46.81,12.12,2.42,13.97,2.27,2.51,5.76,3.76,10.48,3.76h4.21v3.31h-51.5v-3.31h4.3c5.13,0,8.78-1.55,10.93-4.66,1.31-1.91,1.97-6.27,1.97-13.08V46.35h-14.6c-5.67,0-9.7.42-12.09,1.25-3.11,1.14-5.76,3.31-7.97,6.54-2.21,3.22-3.52,7.58-3.94,13.08h-3.4l1.43-28.48h99.15Z"/>
      <polyline class="cls-2" points="33.66 195.43 3.5 195.43 3.5 165.3"/>
      <polyline class="cls-2" points="195.43 165.2 195.43 195.43 164.72 195.43"/>
      <polyline class="cls-2" points="165.31 3.5 195.43 3.5 195.43 33.66"/>
      <polyline class="cls-2" points="3.5 33.66 3.5 3.5 33.66 3.5"/>
    </g>
  </g>
</svg>