<?xml version="1.0" encoding="UTF-8"?>
<svg id="Layer_1" data-name="Layer 1" xmlns="http://www.w3.org/2000/svg" viewBox="0 0 215.47 181.88">
  <defs>
    <style>
      .cls-1 {
        fill: #231f20;
      }
    </style>
  </defs>
  <path class="cls-1" d="M214.03,160.76h0s-19.67,19.67-19.67,19.67c-1.92,1.93-5.04,1.93-6.96,0-1.92-1.92-1.92-5.04,0-6.96l11.28-11.27H16.8l11.28,11.27c1.92,1.92,1.92,5.04,0,6.96s-5.04,1.93-6.97,0L1.45,160.77c-1.93-1.92-1.93-5.04-.01-6.96h.01s19.66-19.68,19.66-19.68c1.93-1.92,5.04-1.92,6.97,0,1.92,1.93,1.92,5.04,0,6.97l-11.28,11.27h181.87l-11.28-11.27c-1.92-1.93-1.92-5.04,0-6.97,1.92-1.92,5.04-1.92,6.96,0l19.67,19.67c1.93,1.92,1.93,5.03,0,6.96Z"/>
  <g>
    <path class="cls-1" d="M48.2,0h14.24l41.73,114.57h-12.19l-8.92-24.55H27.66l-8.92,24.55H6.55L48.2,0ZM31.83,78.56h46.97L55.32,14.08l-23.49,64.48Z"/>
    <path class="cls-1" d="M156.14,114.57L114.57,0h12.11l36.33,100.16L199.51,0h12.11l-41.65,114.57h-13.83Z"/>
  </g>
</svg>