<?xml version="1.0" encoding="UTF-8"?>
<svg id="Layer_1" data-name="Layer 1" xmlns="http://www.w3.org/2000/svg" viewBox="0 0 206.68 350.02">
  <defs>
    <style>
      .cls-1 {
        fill: #231f20;
      }

      .cls-2, .cls-3 {
        fill: none;
        stroke: #231f20;
        stroke-miterlimit: 10;
        stroke-width: 9px;
      }

      .cls-3 {
        stroke-linecap: round;
      }
    </style>
  </defs>
  <g>
    <rect class="cls-2" x="62.64" y="226.59" width="69.27" height="93.92" rx="11" ry="11"/>
    <path class="cls-3" d="M80.25,214.93h47.27c9.12,0,16.51,7.39,16.51,16.51v64.02"/>
    <g>
      <path class="cls-1" d="M80.52,279.02l-2.18,7.86h-7.17l9.35-30.61h9.08l9.49,30.61h-7.45l-2.36-7.86h-8.76ZM88.28,273.84l-1.91-6.49c-.54-1.82-1.09-4.09-1.54-5.9h-.09c-.45,1.82-.91,4.13-1.41,5.9l-1.82,6.49h6.77Z"/>
      <path class="cls-1" d="M115.58,286.88l-.41-2.22h-.14c-1.45,1.77-3.72,2.72-6.36,2.72-4.5,0-7.17-3.27-7.17-6.81,0-5.77,5.18-8.54,13.03-8.49v-.32c0-1.18-.64-2.86-4.04-2.86-2.27,0-4.68.77-6.13,1.68l-1.27-4.45c1.54-.86,4.59-1.95,8.63-1.95,7.4,0,9.76,4.36,9.76,9.58v7.72c0,2.13.09,4.18.32,5.4h-6.22ZM114.76,276.39c-3.63-.04-6.45.82-6.45,3.5,0,1.77,1.18,2.63,2.72,2.63,1.73,0,3.13-1.13,3.59-2.54.09-.36.14-.77.14-1.18v-2.41Z"/>
    </g>
  </g>
  <g>
    <path class="cls-1" d="M87.45,132.73l3.63,12.48c.66,2.25,1.15,4.4,1.54,6.54h.17c.44-2.2.88-4.23,1.48-6.54l3.46-12.48h8.8l-10.01,26.89h-8.36l-9.79-26.89h9.07Z"/>
    <path class="cls-1" d="M109.45,152.31c1.54.94,4.73,2.04,7.2,2.04s3.58-.88,3.58-2.25-.83-2.03-3.96-3.08c-5.55-1.87-7.7-4.89-7.64-8.08,0-5,4.29-8.8,10.94-8.8,3.13,0,5.94.71,7.59,1.54l-1.48,5.77c-1.21-.66-3.52-1.54-5.83-1.54-2.04,0-3.19.82-3.19,2.2,0,1.26,1.04,1.92,4.34,3.08,5.11,1.76,7.26,4.34,7.31,8.3,0,5-3.96,8.69-11.66,8.69-3.52,0-6.65-.77-8.69-1.87l1.48-5.99Z"/>
  </g>
  <g>
    <path class="cls-1" d="M30.91,41.82c-.6-2.53-1.81-4.62-2.36-5.39-.99-1.16-1.43-1.59-4.67-1.59h-3.52v25.85c0,4.62.55,4.95,5.44,5.33v2.03H7.53v-2.03c4.67-.38,5.17-.71,5.17-5.33v-25.85h-3.35c-3.08,0-3.96.49-5,1.81-.77,1.04-1.54,3.02-2.25,5.22H0c.39-4.01.77-8.3.88-10.94h1.65c.82,1.27,1.48,1.38,3.13,1.38h22c1.48,0,2.25-.33,3.19-1.38h1.59c.06,2.31.27,7.15.55,10.72l-2.09.17Z"/>
    <path class="cls-1" d="M61.27,45.51c-2.64.38-3.19.93-4.56,3.9-1.37,2.86-2.91,6.98-6.1,14.63-3.74,8.91-4.78,12.54-5.83,15.67-.39,1.21-1.04,1.59-1.98,1.59-2.14,0-4.34-1.59-4.34-3.52,0-.88.33-1.32,1.48-2.04,2.14-1.21,3.63-2.25,4.62-3.96.55-.94,1.15-2.42,1.38-3.08.22-.77.11-1.26-.22-2.09-2.86-7.92-6.38-15.45-7.37-17.76-.99-2.31-1.65-2.97-4.29-3.35v-1.87h13.75v1.87c-2.36.38-2.75.77-2.14,2.47l4.29,11.6c1.21-3.02,3.19-8.08,4.18-11.16.55-1.76-.17-2.47-2.91-2.91v-1.87h10.06v1.87Z"/>
    <path class="cls-1" d="M61.54,44.9c2.91-.44,6.6-1.48,10.12-2.47v3.96c.11-.06,3.68-2.2,3.85-2.25,1.38-.82,2.58-1.15,3.57-1.15,6.05,0,9.51,5.55,9.51,10.83,0,8.03-6.38,13.36-13.47,14.9-1.38,0-2.64-.16-3.46-.49v6.6c0,3.08.28,3.41,4.07,3.9v1.81h-14.74v-1.81c3.35-.33,3.57-.82,3.57-3.85v-24.53c0-2.97-.33-3.3-3.02-3.63v-1.81ZM71.66,64.04c1.04,1.04,3.08,2.03,4.51,2.03,2.91,0,5.06-3.57,5.06-9.51,0-6.76-3.35-9.35-6.1-9.35-1.38,0-2.53.55-3.46,1.21v15.62Z"/>
    <path class="cls-1" d="M114.23,62.67c-3.36,4.95-7.75,6.05-10.06,6.05-7.37,0-11.55-5.44-11.55-11.99,0-3.85,1.81-7.64,4.12-9.9,2.47-2.47,5.55-3.85,8.58-3.85,5.39,0,9.13,4.45,9.07,8.96,0,.93-.05,1.87-.71,2.03-1.04.27-8.8.66-14.13.88.22,5.83,3.46,8.8,7.42,8.8,2.14,0,4.29-.77,6.27-2.47l.99,1.48ZM104.22,45.23c-2.2,0-4.07,2.58-4.4,6.93,2.25-.05,4.34-.11,6.65-.17.77-.05,1.1-.16,1.1-1.1.05-2.75-1.21-5.66-3.35-5.66Z"/>
    <path class="cls-1" d="M121,43.64v-1.16c0-3.74,2.09-7.64,5.22-10.12,1.98-1.65,4.12-2.53,6.76-2.86,2.09,0,3.79.6,4.78,1.54.77.77.77,1.65.5,2.47-.33.99-1.1,1.92-1.98,2.42-.93.55-1.48.38-2.03-.11-1.32-1.38-2.97-3.13-4.51-3.13s-1.71,1.48-1.65,8.58v2.36h5.06c.22.55,0,2.31-.77,2.75h-4.29v15.67c0,3.41.38,3.68,3.9,4.12v1.87h-14.24v-1.87c3.08-.44,3.24-.71,3.24-4.12v-15.67h-3.63l-.28-.71,1.43-2.03h2.47Z"/>
    <path class="cls-1" d="M153.12,68.72c-1.49,0-2.7-.49-3.41-1.15-.77-.66-1.15-1.43-1.43-2.03-2.09,1.38-4.78,3.19-5.83,3.19-4.73,0-7.48-3.68-7.48-7.09,0-2.91,1.32-4.23,4.23-5.39,3.24-1.21,7.59-2.53,8.85-3.63v-2.42c0-2.86-1.04-4.45-3.41-4.45-.94,0-1.71.44-2.2,1.1-.66.88-.88,1.98-1.32,3.63-.39,1.48-1.27,1.87-2.37,1.87-1.43,0-3.24-1.32-3.24-2.86,0-.99.66-1.71,1.92-2.58,2.47-1.65,5.72-3.24,8.8-3.9,2.2,0,4.07.5,5.66,1.59,2.36,1.65,3.02,3.96,3.02,6.76v9.51c0,2.64.88,3.3,1.76,3.3.55,0,1.1-.17,1.71-.44l.6,1.87-5.88,3.13ZM148.06,54.86c-.99.55-1.98,1.1-3.08,1.7-1.71.88-2.7,1.87-2.7,3.74,0,3.08,2.14,4.18,3.35,4.18.77,0,1.54-.05,2.42-.88v-8.74Z"/>
    <path class="cls-1" d="M182.54,62.72c-2.53,3.63-6.21,5.99-9.57,5.99-7.59,0-12.04-5.72-12.04-11.82,0-4.07,2.09-7.92,5.61-10.5,3.63-2.69,7.09-3.41,9.57-3.41,2.09,0,3.85.6,4.84,1.32.77.55,1.04,1.21,1.04,2.03-.05,1.54-1.59,3.08-2.47,3.08-.38,0-.77-.17-1.21-.6-2.36-1.98-4.23-2.86-5.72-2.86-2.14,0-4.73,2.09-4.73,8.03,0,7.31,5.33,9.68,7.7,9.68s3.9-.6,5.88-2.31l1.1,1.37Z"/>
    <path class="cls-1" d="M206.52,62.67c-3.35,4.95-7.75,6.05-10.06,6.05-7.37,0-11.55-5.44-11.55-11.99,0-3.85,1.81-7.64,4.12-9.9,2.47-2.47,5.55-3.85,8.58-3.85,5.39,0,9.13,4.45,9.07,8.96,0,.93-.05,1.87-.71,2.03-1.04.27-8.8.66-14.13.88.22,5.83,3.46,8.8,7.42,8.8,2.14,0,4.29-.77,6.27-2.47l.99,1.48ZM196.51,45.23c-2.2,0-4.07,2.58-4.4,6.93,2.25-.05,4.34-.11,6.65-.17.77-.05,1.1-.16,1.1-1.1.05-2.75-1.21-5.66-3.35-5.66Z"/>
  </g>
</svg>